<svg id="Calque_1" data-name="Calque 1" xmlns="http://www.w3.org/2000/svg" xmlns:xlink="http://www.w3.org/1999/xlink" viewBox="0 0 1299.65 397.85"><defs><style>.cls-1{fill:none;}.cls-2,.cls-3{fill:#fff;}.cls-3{stroke:#fff;stroke-linecap:round;stroke-linejoin:round;stroke-width:1px;}.cls-4{clip-path:url(#clip-path);}</style><clipPath id="clip-path"><rect class="cls-1" x="672.63" y="85.02" width="680.36" height="309.29"/></clipPath></defs><path class="cls-2" d="M298.54,117.12c4.37,9.17-2.73,21.67-12.53,26.36s-21.28,1.05-25.65-8.12,0-20.4,9.84-25.08S294.18,108,298.54,117.12Z"/><path class="cls-2" d="M377,184.21c4.36,9.17-.05,20.4-9.85,25.08s-24,2.33-28.34-6.84,2.73-21.67,12.53-26.35S372.63,175.05,377,184.21Z"/><path class="cls-2" d="M330.38,169.39Zm89.3-5.48a67.1,67.1,0,0,0-112.6-13.42l23.3,18.9a37.07,37.07,0,1,1,29.12,60.46v30a67.06,67.06,0,0,0,60.18-95.94Z"/><path class="cls-2" d="M307.11,150.48A37.06,37.06,0,1,1,278,90V60a67.08,67.08,0,0,0,.31,134.15h.05a67.24,67.24,0,0,0,52-24.79Z"/><rect class="cls-1" width="660.45" height="397.85"/><path class="cls-2" d="M670.7,330.31a1.93,1.93,0,0,1,1.91-1.95h0a1.93,1.93,0,0,1,1.91,1.95h0a1.92,1.92,0,0,1-1.91,1.91h0A1.92,1.92,0,0,1,670.7,330.31Zm0-7.54a1.89,1.89,0,0,1,1.91-1.91h0a1.89,1.89,0,0,1,1.91,1.91h0a1.89,1.89,0,0,1-1.91,1.92h0A1.89,1.89,0,0,1,670.7,322.77Zm0-7.49a1.92,1.92,0,0,1,1.91-1.95h0a1.92,1.92,0,0,1,1.91,1.95h0a1.92,1.92,0,0,1-1.91,1.91h0A1.92,1.92,0,0,1,670.7,315.28Zm0-7.54a1.89,1.89,0,0,1,1.91-1.91h0a1.89,1.89,0,0,1,1.91,1.91h0a1.89,1.89,0,0,1-1.91,1.91h0A1.89,1.89,0,0,1,670.7,307.74Zm0-7.54a1.92,1.92,0,0,1,1.91-1.91h0a1.92,1.92,0,0,1,1.91,1.91h0a1.89,1.89,0,0,1-1.91,1.92h0A1.89,1.89,0,0,1,670.7,300.2Zm0-7.49a1.93,1.93,0,0,1,1.91-1.95h0a1.93,1.93,0,0,1,1.91,1.95h0a1.92,1.92,0,0,1-1.91,1.91h0A1.92,1.92,0,0,1,670.7,292.71Zm0-7.54a1.89,1.89,0,0,1,1.91-1.91h0a1.89,1.89,0,0,1,1.91,1.91h0a1.89,1.89,0,0,1-1.91,1.92h0A1.89,1.89,0,0,1,670.7,285.17Zm0-7.53a1.91,1.91,0,0,1,1.91-1.91h0a1.91,1.91,0,0,1,1.91,1.91h0a1.93,1.93,0,0,1-1.91,1.95h0A1.93,1.93,0,0,1,670.7,277.64Zm0-7.5a1.89,1.89,0,0,1,1.91-1.91h0a1.89,1.89,0,0,1,1.91,1.91h0a1.89,1.89,0,0,1-1.91,1.91h0A1.89,1.89,0,0,1,670.7,270.14Zm0-7.54a1.92,1.92,0,0,1,1.91-1.91h0a1.92,1.92,0,0,1,1.91,1.91h0a1.89,1.89,0,0,1-1.91,1.92h0A1.89,1.89,0,0,1,670.7,262.6Zm0-7.49a1.93,1.93,0,0,1,1.91-2h0a1.93,1.93,0,0,1,1.91,2h0a1.92,1.92,0,0,1-1.91,1.91h0A1.92,1.92,0,0,1,670.7,255.11Zm0-7.54a1.89,1.89,0,0,1,1.91-1.91h0a1.89,1.89,0,0,1,1.91,1.91h0a1.89,1.89,0,0,1-1.91,1.92h0A1.89,1.89,0,0,1,670.7,247.57Zm0-7.49a1.93,1.93,0,0,1,1.91-2h0a1.93,1.93,0,0,1,1.91,2h0a1.92,1.92,0,0,1-1.91,1.91h0A1.92,1.92,0,0,1,670.7,240.08Zm0-7.54a1.89,1.89,0,0,1,1.91-1.91h0a1.89,1.89,0,0,1,1.91,1.91h0a1.89,1.89,0,0,1-1.91,1.91h0A1.89,1.89,0,0,1,670.7,232.54Zm0-7.53a1.92,1.92,0,0,1,1.91-1.92h0a1.92,1.92,0,0,1,1.91,1.92h0a1.93,1.93,0,0,1-1.91,2h0A1.93,1.93,0,0,1,670.7,225Zm0-7.5a1.89,1.89,0,0,1,1.91-1.91h0a1.89,1.89,0,0,1,1.91,1.91h0a1.92,1.92,0,0,1-1.91,1.91h0A1.92,1.92,0,0,1,670.7,217.51Zm0-7.54a1.92,1.92,0,0,1,1.91-1.91h0a1.92,1.92,0,0,1,1.91,1.91h0a1.89,1.89,0,0,1-1.91,1.92h0A1.89,1.89,0,0,1,670.7,210Zm0-7.49a1.93,1.93,0,0,1,1.91-1.95h0a1.93,1.93,0,0,1,1.91,1.95h0a1.92,1.92,0,0,1-1.91,1.91h0A1.92,1.92,0,0,1,670.7,202.48Zm0-7.54a1.89,1.89,0,0,1,1.91-1.91h0a1.89,1.89,0,0,1,1.91,1.91h0a1.89,1.89,0,0,1-1.91,1.91h0A1.89,1.89,0,0,1,670.7,194.94Zm0-7.49a1.93,1.93,0,0,1,1.91-2h0a1.93,1.93,0,0,1,1.91,2h0a1.92,1.92,0,0,1-1.91,1.91h0A1.92,1.92,0,0,1,670.7,187.45Zm0-7.54a1.89,1.89,0,0,1,1.91-1.91h0a1.89,1.89,0,0,1,1.91,1.91h0a1.89,1.89,0,0,1-1.91,1.91h0A1.89,1.89,0,0,1,670.7,179.91Zm0-7.54a1.92,1.92,0,0,1,1.91-1.91h0a1.92,1.92,0,0,1,1.91,1.91h0a1.9,1.9,0,0,1-1.91,1.92h0A1.9,1.9,0,0,1,670.7,172.37Zm0-7.49a1.93,1.93,0,0,1,1.91-1.95h0a1.93,1.93,0,0,1,1.91,1.95h0a1.92,1.92,0,0,1-1.91,1.91h0A1.92,1.92,0,0,1,670.7,164.88Z"/><path class="cls-3" d="M672.62,337.87m0-180.53"/><path class="cls-2" d="M672.61,339.8a2.16,2.16,0,0,1-.73-.16,1.75,1.75,0,0,1-.61-.42,1.87,1.87,0,0,1-.57-1.37,1.81,1.81,0,0,1,.57-1.35,2,2,0,0,1,2.07-.41,2.23,2.23,0,0,1,.65.41,2,2,0,0,1,0,2.72,2.26,2.26,0,0,1-.65.42A2.16,2.16,0,0,1,672.61,339.8Z"/><path class="cls-2" d="M672.61,159.25a1.95,1.95,0,0,1-1.91-1.91,1.94,1.94,0,0,1,.57-1.37,1.89,1.89,0,0,1,2.07-.39,2.16,2.16,0,0,1,.65.39,2.08,2.08,0,0,1,.53,1.37,1.92,1.92,0,0,1-.53,1.34A2,2,0,0,1,672.61,159.25Z"/><path class="cls-2" d="M104,321.23c0,9.6,4.11,15,10.09,15,4.67,0,7.8-2.85,10.45-6.4l1.66,1.11c-3.12,4.6-7,7.66-14.4,7.66-8.63,0-15.32-7.94-15.32-17.2s6.69-17.19,15.32-17.19c8.14,0,14.75,5.71,14.75,17Zm15.45-2.37c0-5-1-12.25-7.79-12.25S104,313.85,104,318.86Z"/><path class="cls-2" d="M146.24,304.66v6.54h.14c2.5-4.31,5.85-7,10.65-7S167.4,306.82,167.4,317v20.81h-6.55V314.54c0-6.05-3-7.51-5.57-7.51-5.15,0-8.49,6.47-8.49,11.76v19h-6.58l0-27.42c0-2.23-1.25-2.93-4.94-2.93v-2.36Z"/><path class="cls-2" d="M190.5,294.22v10.86h9.68v2.36H190.5v25.2c0,2.93,1.81,3.62,3.83,3.62,2.72,0,5.08-1.95,5.08-7.52v-1.46h2v1.18c0,6.27-1.88,10.17-8.77,10.17-4.88,0-8.64-1.6-8.64-8.5V307.44h-5.08v-2.36c6.47-.56,7.31-2.37,9.12-10.86Z"/><path class="cls-2" d="M220.28,337.79h-6.53V310.37c0-2.23-1.25-2.93-5-2.93v-2.36l11.07-.42v9.47H220c1.46-5.58,3.76-9.89,9.53-9.89,3.83,0,5.5,2.72,5.5,4.8a3.71,3.71,0,0,1-3.69,3.69,3.07,3.07,0,0,1-3.41-3.27,3.11,3.11,0,0,1,1.46-2.71,3,3,0,0,0-.9-.14c-4.67,0-8.15,8.56-8.15,21.78C220.29,334.17,220.28,337.79,220.28,337.79Z"/><path class="cls-2" d="M275.91,329.72c0,4.52-2.23,8.49-7.17,8.49-4.11,0-5.08-2.64-5.64-6.26H263c-1.95,5.15-6,6.68-11.21,6.68-4.94,0-9.81-2.58-9.81-8,0-8,14.69-11.2,20.6-13.22v-6.48c0-3.48-4.52-4.31-7.17-4.31a11.46,11.46,0,0,0-6.54,1.74,3.52,3.52,0,0,1,3,3.69,4,4,0,1,1-8.08,0c0-4.25,5.5-7.8,11.83-7.8,9,0,13.51,2.23,13.51,9.61v16.84c0,3.48.83,3.9,2.16,3.9,2.22,0,2.71-3.2,2.71-4.87Zm-13.37-10.1c-4.87,1.19-13.08,4.67-13.08,10.73,0,3.13,1.6,5.35,4.87,5.35,4.38,0,8.21-4.1,8.21-10Z"/><path class="cls-2" d="M313.38,321.23c0,9.6,4.11,15,10.1,15,4.66,0,7.8-2.85,10.44-6.4l1.67,1.11c-3.13,4.6-7,7.66-14.41,7.66-8.63,0-15.31-7.94-15.31-17.2s6.68-17.19,15.31-17.19c8.15,0,14.76,5.71,14.76,17Zm15.46-2.37c0-5-1-12.25-7.8-12.25s-7.66,7.24-7.66,12.25Z"/><path class="cls-2" d="M417.53,337.76v-6.09h-.14c-2.51,4.31-5.85,7-10.65,7-6.27,0-10.37-4.32-10.37-12.53V310.37c0-2.23-1.26-2.93-4.95-2.93v-2.36h11.49v24.08c0,3.9,1.53,6.68,5.22,6.68,5.71,0,8.21-5.29,8.84-9.88V310.37c0-2.23-1.25-2.93-5.43-2.93v-2.36h12v32.68Z"/><path class="cls-2" d="M446,311.48h.14c1.74-3.9,4.25-7.24,9.82-7.24,8.14,0,14.68,8.15,14.68,16.84,0,9.2-6.26,17.55-14.62,17.55-4.94,0-7.23-1.67-9.32-5.64h-.14v19.17H440V310.78c0-2.23-1.25-2.92-5.28-2.92v-2.37l11.27-.41Zm.56,10.16v1.88c0,10.58,5.64,12.74,7.93,12.74,6.55,0,9-4.31,9-14.62,0-8.77-2.5-15-8.49-15C449.75,306.61,446.55,312.87,446.55,321.64Z"/><path class="cls-2" d="M489,321.23c0,9.6,4.11,15,10.1,15,4.66,0,7.79-2.85,10.44-6.4l1.67,1.11c-3.13,4.6-7,7.66-14.41,7.66-8.63,0-15.31-7.94-15.31-17.2s6.68-17.19,15.31-17.19c8.15,0,14.76,5.71,14.76,17Zm15.46-2.37c0-5-1-12.25-7.8-12.25S489,313.85,489,318.86Zm-12.32-18.52L502.37,290a3.93,3.93,0,0,1,3-1.6,2.11,2.11,0,0,1,2.37,2.3,3.86,3.86,0,0,1-2.09,2.85l-10.72,6.82Z"/><path class="cls-2" d="M525.87,337.79l0-39.68c0-2.23-1.25-2.92-5.29-2.92v-2.37l11.84-.42v45.39Z"/><path class="cls-2" d="M287,337.79l0-39.68c0-2.23-1.25-2.92-5.29-2.92v-2.37l11.84-.42v45.39Z"/><path class="cls-2" d="M552,321.23c0,9.6,4.1,15,10.09,15,4.67,0,7.8-2.85,10.44-6.4l1.67,1.11c-3.13,4.6-7,7.66-14.4,7.66-8.64,0-15.32-7.94-15.32-17.2s6.68-17.19,15.32-17.19c8.14,0,14.75,5.71,14.75,17Zm15.45-2.37c0-5-1-12.25-7.8-12.25-6.68,0-7.65,7.24-7.65,12.25Z"/><path class="cls-2" d="M83,323.49c-1.56,7.38-5.87,12.77-15.37,12.77-6.06,0-14.41-5.71-14.41-22.41,0-15.11,4.6-22.42,14.62-22.42,8.91,0,12.18,7.59,14.34,15.32H84V290.32H82.35c-.42,1.25-1.6,2.64-2.86,2.64s-6.19-3.89-12.39-3.89c-12.66,0-22,11.9-22,24.78s9.33,24.78,21.23,24.78c11.57,0,17.15-5.88,18.72-15.14Z"/><path class="cls-2" d="M381.53,323.14c0-17.13-27.84-10-27.84-23.25,0-5.57,4-8.42,9.26-8.42,8.08,0,12,7.72,13.85,14.61h1.95V289.93h-2.37c-.21.7-1.11,3.21-2.15,3.21-1.68,0-5-4-11.35-4-7.45,0-14.9,4.87-14.9,13.22,0,18.52,27.85,9.26,27.85,24.92,0,5.64-5.1,9.11-11.22,9.11-9.52,0-13.83-5.42-15.38-12.82h-2.1c1.52,9,7,15.13,17.79,15.13h0C374.14,338.62,381.53,332.78,381.53,323.14Z"/><path class="cls-2" d="M613.64,329.82c-2.44,3.63-5.57,6.41-10.58,6.41-7.45,0-10.65-6.89-10.65-15.6s4.26-14,10-14c7.72,0,3.88,8.41,8.77,8.41a3.6,3.6,0,0,0,3.76-3.47c0-4.66-6.53-7.34-11.89-7.34-9.33,0-18.17,7.24-18.17,17.19s7.31,17.2,16.85,17.2c6.47,0,10.79-3.07,13.64-7.94Z"/><path class="cls-2" d="M1283.47,138.1a16.18,16.18,0,1,0,16.18,16.18,16.18,16.18,0,0,0-16.18-16.18"/><path class="cls-2" d="M1248.6,194.74a10,10,0,1,0-10-10,10,10,0,0,0,10,10"/><rect class="cls-2" x="872.67" y="211.73" width="10.76" height="60.6"/><path class="cls-2" d="M976.65,237.78c1.47-10.6,8.7-17.89,17.87-17.89,11.37,0,16.48,9,17.56,17.89Zm18.1-27.3c-16.59,0-29.11,13.59-29.11,31.61s13,31.59,30.25,31.59c10.18,0,17.85-3.49,24.87-11.32l.68-.76-6.93-6.21-.68.71c-5.18,5.43-10.81,8-17.72,8-10.26,0-18-7.1-19.46-17.79h46.19l.11-.9a26.67,26.67,0,0,0,.11-2.83c0-19.17-11.38-32.06-28.31-32.06"/><path class="cls-2" d="M769.37,272.33H780v-60.6H769.37v34.55c0,10.2-6.8,17.32-16.53,17.32-9.51,0-15.18-6.22-15.18-16.65V211.73H726.9v37.38c0,14.86,9.21,24.46,23.44,24.46,8,0,14.23-3,19-9.21Z"/><path class="cls-2" d="M842.31,237.1v35.23h10.76V235c0-14.86-9.21-24.47-23.44-24.47-8,0-14.34,3.09-19,9.17v-7.92H799.84v60.6H810.6V237.78c0-10.2,6.79-17.33,16.53-17.33,9.5,0,15.18,6.22,15.18,16.65"/><polygon class="cls-2" points="932.91 272.78 959.27 211.73 947.63 211.73 928.5 258.63 909.48 211.73 897.61 211.73 923.86 272.78 932.91 272.78"/><path class="cls-2" d="M1049.34,248c0-15.7,8.71-25.83,22.2-25.83h1.7v-11.4l-1,0c-9.4-.4-17.74,4.49-22.92,13.13V211.73h-10.76v60.59h10.76Z"/><path class="cls-2" d="M1198.71,273.34a22.9,22.9,0,0,0,11-2.61l.55-.28v-9.72l-1.46.71a17.27,17.27,0,0,1-8,1.94c-6,0-8.84-2.77-8.84-8.73V221.47h18.58v-9.74h-18.58v-20l-10.76,5.94v14h-11.36v9.74h11.36v34.32c0,11.32,6.24,17.55,17.56,17.55"/><path class="cls-2" d="M1249,219.89c11.36,0,16.47,9,17.55,17.89h-35.44c1.48-10.6,8.71-17.89,17.89-17.89m1.35,53.79c10.19,0,17.87-3.49,24.88-11.32l.69-.76-6.94-6.21-.68.71c-5.17,5.43-10.81,8-17.72,8-10.26,0-18-7.1-19.47-17.78h46.2l.11-.91a24.46,24.46,0,0,0,.12-2.83c0-19.18-11.38-32.06-28.32-32.06-16.6,0-29.11,13.59-29.11,31.6s13,31.6,30.24,31.6"/><path class="cls-2" d="M1109.44,236.92l-.22-.07c-7.26-2.21-14.12-4.3-14.12-9.26,0-4.47,4.14-7.48,10.31-7.48,5.32,0,11.28,1.95,16.77,5.5l.88.58,5-8.32-.81-.54a40.94,40.94,0,0,0-21.63-6.62c-12.33,0-21,7.31-21,17.78v.23c0,11.81,11.62,15.11,20.11,17.52,7.86,2.19,13.87,4.28,13.87,9.55,0,5-4.46,8.27-11.1,8.27s-13.32-2.52-19.66-7.27l-.84-.63-5.58,7.86.74.6a41.37,41.37,0,0,0,24.88,8.84c13.08,0,21.86-7.47,21.86-18.58v-.23c0-11.87-11.75-15.4-19.52-17.73"/><rect class="cls-2" x="1146.18" y="211.73" width="10.76" height="60.6"/><path class="cls-2" d="M785.77,319.05l6.14-15,6.13,15Zm1.59-27.18-19.8,46.52h10.36L782.15,328h19.52l4.22,10.36h10.62l-19.78-46.52Z"/><path class="cls-2" d="M1201.35,319.05l6.13-15,6.14,15Zm1.58-27.18-19.8,46.52h10.37l4.22-10.36h19.52l4.23,10.36h10.62l-19.8-46.52Z"/><polygon class="cls-2" points="1255.04 310.74 1244.02 292.21 1232.14 292.21 1249.89 320.17 1249.89 338.38 1260.05 338.38 1260.05 319.98 1277.8 292.21 1266.25 292.21 1255.04 310.74"/><path class="cls-2" d="M753.38,308.5c0,4-3,7-8,7h-8.05V301.38h7.85c5.08,0,8.24,2.44,8.24,7ZM746,292.21H727.13v46.18h10.16V324.54H745c10.37,0,18.68-5.55,18.68-16.24v-.13c0-9.44-6.67-16-17.69-16"/><path class="cls-2" d="M1109.64,329.81c-7.91,0-13.39-6.59-13.39-14.51v-.14c0-7.91,5.61-14.38,13.39-14.38,4.62,0,8.25,2,11.81,5.22l6.47-7.46c-4.29-4.22-9.5-7.12-18.21-7.12-14.18,0-24.08,10.75-24.08,23.88v.13a23.31,23.31,0,0,0,23.68,23.75c8.91,0,14.19-3.17,18.94-8.25l-6.47-6.53c-3.63,3.3-6.86,5.41-12.14,5.41"/><path class="cls-2" d="M1006.12,310.74c-8-2-10-3-10-6.07v-.12c0-2.25,2.05-4,6-4s7.92,1.72,12,4.56l5.28-7.65a26.72,26.72,0,0,0-17.15-5.88c-9.43,0-16.17,5.55-16.17,13.93v.13c0,9.16,6,11.74,15.31,14.12,7.72,2,9.3,3.29,9.3,5.87v.13c0,2.7-2.51,4.35-6.66,4.35-5.28,0-9.64-2.18-13.79-5.6l-6,7.19a29.41,29.41,0,0,0,19.6,7.39c10,0,17-5.15,17-14.32v-.13c0-8.05-5.29-11.41-14.65-13.86"/><polygon class="cls-2" points="1151.47 292.21 1141.31 292.21 1141.31 338.39 1174.5 338.39 1174.5 329.15 1151.47 329.15 1151.47 292.21"/><path class="cls-2" d="M1047.82,319.05l6.14-15,6.13,15Zm1.58-27.18-19.78,46.52H1040l4.22-10.36h19.53l4.22,10.36h10.62l-19.79-46.52Z"/><rect class="cls-2" x="953.28" y="313.12" width="20.32" height="9.64"/><path class="cls-2" d="M856.82,308.11c0,3.89-2.83,6.53-7.78,6.53h-10.3V301.38h10.1c4.95,0,8,2.24,8,6.59Zm10.29-.53v-.13c0-9.51-6.53-15.24-17.41-15.24H828.59v46.18h10.15V323.61h8l9.9,14.78H868.5l-11.28-16.5c5.87-2.17,9.89-6.86,9.89-14.31"/><rect class="cls-2" x="881.7" y="292.2" width="10.16" height="46.18"/><g class="cls-4"><path class="cls-2" d="M927.09,310.74c-8-2-10-3-10-6.07v-.12c0-2.25,2-4,5.94-4s7.92,1.72,12,4.56l5.27-7.65a26.72,26.72,0,0,0-17.15-5.88c-9.43,0-16.16,5.55-16.16,13.93v.13c0,9.16,6,11.74,15.3,14.12,7.72,2,9.3,3.29,9.3,5.87v.13c0,2.7-2.5,4.35-6.65,4.35-5.28,0-9.64-2.18-13.79-5.6l-6,7.19a29.38,29.38,0,0,0,19.6,7.39c10,0,17-5.15,17-14.32v-.13c0-8.05-5.28-11.41-14.64-13.86"/></g></svg>